<?xml version="1.0" encoding="UTF-8"?><svg id="Layer_1" xmlns="http://www.w3.org/2000/svg" xmlns:xlink="http://www.w3.org/1999/xlink" viewBox="0 0 2770.89 1636.5"><defs><style>.cls-1{fill:none;}.cls-2{letter-spacing:0em;}.cls-3{fill:#185cf5;}.cls-3,.cls-4,.cls-5{fill-rule:evenodd;}.cls-6{font-family:Autography, Autography;font-size:230.42px;}.cls-4{fill:#434343;}.cls-5,.cls-7{fill:#0a86ff;}.cls-8{letter-spacing:.02em;}.cls-9{letter-spacing:.01em;}.cls-10{clip-path:url(#clippath);}.cls-11{letter-spacing:.03em;}.cls-12{letter-spacing:0em;}.cls-13{letter-spacing:0em;}</style><clipPath id="clippath"><rect class="cls-1" x="272.26" y="172.72" width="741.9" height="475.51"/></clipPath></defs><rect class="cls-7" x="272.26" y="172.72" width="741.9" height="475.51"/><g class="cls-10"><path class="cls-3" d="M1267.68,671.87c0-358.68-283.78-649.45-633.84-649.45S0,313.43,0,671.87s284.03,645.63,633.84,649.47c311.48,3.4,568.56-161.82,637.27-502.28l-324.33-1.77c-50.9,121.29-184.09,201.03-312.94,201.03-177.98,0-322.47-164.08-322.47-346.44s144.49-338.78,322.47-338.78,322.47,156.3,322.47,338.78h311.37Z"/></g><path class="cls-4" d="M1310.84,649.45C1310.84,290.77,1027.06,0,676.99,0S43.14,291,43.14,649.45s284.04,645.63,633.84,649.45c311.48,3.41,568.56-161.81,637.28-502.28l-324.34-1.77c-50.9,121.29-184.09,201.03-312.94,201.03-177.97,0-322.47-164.08-322.47-346.43s144.5-338.8,322.47-338.8,322.47,156.3,322.47,338.8h311.38Z"/><polyline class="cls-4" points="1009.88 649.56 315.33 651.91 1085.98 489.74"/><path class="cls-4" d="M1594.15,526.05l582.85,338.29s25.89-212.09-115.7-318.71c-117.24-88.3-393.09-236.12-393.09-236.12"/><path class="cls-5" d="M2633.98,877.58c-14.18,47.98-34.15,95.04-60.2,140.25-11.36,19.72-23.6,38.61-36.64,56.65l231.99,134.65s25.38-211.23-116.25-317.75c-5.92-4.46-12.24-9.07-18.9-13.79Z"/><path class="cls-4" d="M1277.34,499.65c-43.65,261.45,100.19,582.22,342.62,722.51,311.97,180.52,711.49,73.22,891.61-239.45,180.12-312.68,73.06-713.09-238.91-893.61-311.97-180.52-711.5-73.24-891.61,239.44-2.84,4.95-27.79,48.06-28.86,58.08l253.56,145.72c4.48-9.6,20.6-49.42,25.96-58.74,100.25-174.02,331.02-253.27,504.65-152.8,173.63,100.47,248.59,348.95,148.34,522.97-100.25,174.01-357.63,257.28-531.26,156.8-56.41-32.65-160.16-110.57-206.15-228.84-63.34-162.89-124.27-213.16-269.95-272.07Z"/><text class="cls-6" transform="translate(643.6 1529.82)"><tspan x="0" y="0">E</tspan><tspan class="cls-13" x="180.88" y="0">m</tspan><tspan class="cls-9" x="311.29" y="0">m</tspan><tspan x="443.55" y="0">a</tspan><tspan class="cls-8" x="535.71" y="0">n</tspan><tspan class="cls-12" x="641.24" y="0">u</tspan><tspan x="729.26" y="0">el A</tspan><tspan class="cls-11" x="1167.74" y="0">p</tspan><tspan class="cls-2" x="1253.22" y="0">etsi</tspan></text></svg>